<svg width="25" height="24" viewBox="0 0 25 24" fill="none" xmlns="http://www.w3.org/2000/svg">
<path d="M12.5 1.5C11.4617 1.5 10.4466 1.80791 9.58326 2.38478C8.7199 2.96166 8.04699 3.7816 7.64963 4.74091C7.25227 5.70022 7.14831 6.75582 7.35088 7.77422C7.55345 8.79262 8.05347 9.72809 8.78769 10.4623C9.52192 11.1965 10.4574 11.6965 11.4758 11.8991C12.4942 12.1017 13.5498 11.9977 14.5091 11.6004C15.4684 11.203 16.2883 10.5301 16.8652 9.66674C17.4421 8.80339 17.75 7.78835 17.75 6.75C17.75 5.35761 17.1969 4.02226 16.2123 3.03769C15.2277 2.05312 13.8924 1.5 12.5 1.5ZM12.5 10.5C11.7583 10.5 11.0333 10.2801 10.4166 9.86801C9.79993 9.45596 9.31928 8.87029 9.03545 8.18506C8.75162 7.49984 8.67736 6.74584 8.82206 6.01841C8.96675 5.29098 9.3239 4.6228 9.84835 4.09835C10.3728 3.5739 11.041 3.21675 11.7684 3.07206C12.4958 2.92736 13.2498 3.00162 13.9351 3.28545C14.6203 3.56928 15.206 4.04993 15.618 4.66661C16.0301 5.2833 16.25 6.00832 16.25 6.75C16.25 7.24246 16.153 7.73009 15.9646 8.18506C15.7761 8.64003 15.4999 9.05343 15.1517 9.40165C14.8034 9.74987 14.39 10.0261 13.9351 10.2145C13.4801 10.403 12.9925 10.5 12.5 10.5Z" fill="#12477B"/>
<path d="M12.5 10.5C11.7583 10.5 11.0333 10.2801 10.4166 9.86801C9.79993 9.45596 9.31928 8.87029 9.03545 8.18506C8.75162 7.49984 8.67736 6.74584 8.82206 6.01841C8.96675 5.29098 9.3239 4.6228 9.84835 4.09835C10.3728 3.5739 11.041 3.21675 11.7684 3.07206C12.4958 2.92736 13.2498 3.00162 13.9351 3.28545C14.6203 3.56928 15.206 4.04993 15.618 4.66661C16.0301 5.2833 16.25 6.00832 16.25 6.75C16.25 7.24246 16.153 7.73009 15.9646 8.18506C15.7761 8.64003 15.4999 9.05343 15.1517 9.40165C14.8034 9.74987 14.39 10.0261 13.9351 10.2145C13.4801 10.403 12.9925 10.5 12.5 10.5Z" fill="#E8EDF2"/>
<path d="M16.3775 13.5H8.6225C6.86671 13.502 5.18341 14.2003 3.94188 15.4419C2.70035 16.6834 2.00199 18.3667 2 20.1225C2 20.7531 2.25049 21.3578 2.69635 21.8036C3.14222 22.2495 3.74695 22.5 4.3775 22.5H20.6225C21.2531 22.5 21.8578 22.2495 22.3036 21.8036C22.7495 21.3578 23 20.7531 23 20.1225C22.998 18.3667 22.2997 16.6834 21.0581 15.4419C19.8166 14.2003 18.1333 13.502 16.3775 13.5ZM20.6225 21H4.3775C4.14477 21 3.92158 20.9075 3.75701 20.743C3.59245 20.5784 3.5 20.3552 3.5 20.1225C3.5 18.7639 4.03969 17.461 5.00035 16.5003C5.961 15.5397 7.26393 15 8.6225 15H16.3775C17.7361 15 19.039 15.5397 19.9997 16.5003C20.9603 17.461 21.5 18.7639 21.5 20.1225C21.5 20.3552 21.4075 20.5784 21.243 20.743C21.0784 20.9075 20.8552 21 20.6225 21Z" fill="#12477B"/>
<path d="M20.6225 21H4.3775C4.14477 21 3.92158 20.9075 3.75701 20.743C3.59245 20.5784 3.5 20.3552 3.5 20.1225C3.5 18.7639 4.03969 17.461 5.00035 16.5003C5.961 15.5397 7.26393 15 8.6225 15H16.3775C17.7361 15 19.039 15.5397 19.9997 16.5003C20.9603 17.461 21.5 18.7639 21.5 20.1225C21.5 20.3552 21.4075 20.5784 21.243 20.743C21.0784 20.9075 20.8552 21 20.6225 21Z" fill="#E8EDF2"/>
</svg>
