<svg width="20" height="20" viewBox="0 0 20 20" fill="none" xmlns="http://www.w3.org/2000/svg">
<path d="M1.07734 9.41083L6.91067 3.5775C7.06784 3.4257 7.27834 3.34171 7.49684 3.34361C7.71534 3.3455 7.92435 3.43315 8.07885 3.58765C8.23336 3.74216 8.321 3.95117 8.3229 4.16967C8.3248 4.38816 8.2408 4.59867 8.089 4.75583L3.67817 9.16667H18.3332C18.5542 9.16667 18.7661 9.25447 18.9224 9.41075C19.0787 9.56703 19.1665 9.77899 19.1665 10C19.1665 10.221 19.0787 10.433 18.9224 10.5893C18.7661 10.7455 18.5542 10.8333 18.3332 10.8333H3.67817L8.089 15.2442C8.1686 15.321 8.23208 15.413 8.27576 15.5147C8.31943 15.6163 8.34242 15.7257 8.34338 15.8363C8.34434 15.947 8.32326 16.0567 8.28135 16.1591C8.23945 16.2615 8.17758 16.3546 8.09933 16.4328C8.02109 16.5111 7.92805 16.573 7.82563 16.6149C7.72322 16.6568 7.61349 16.6778 7.50284 16.6769C7.39219 16.6759 7.28284 16.6529 7.18117 16.6093C7.0795 16.5656 6.98754 16.5021 6.91067 16.4225L1.07734 10.5892C0.921112 10.4329 0.833349 10.221 0.833349 10C0.833349 9.77903 0.921112 9.56711 1.07734 9.41083Z" fill="#12477B"/>
</svg>
