<svg width="20" height="20" viewBox="0 0 20 20" fill="none" xmlns="http://www.w3.org/2000/svg">
<path d="M1.07749 9.41101L6.91082 3.57768C7.06799 3.42588 7.27849 3.34188 7.49699 3.34378C7.71549 3.34568 7.9245 3.43332 8.07901 3.58783C8.23351 3.74233 8.32115 3.95134 8.32305 4.16984C8.32495 4.38834 8.24096 4.59884 8.08916 4.75601L3.67832 9.16684H18.3333C18.5543 9.16684 18.7663 9.25464 18.9226 9.41092C19.0789 9.5672 19.1667 9.77916 19.1667 10.0002C19.1667 10.2212 19.0789 10.4332 18.9226 10.5894C18.7663 10.7457 18.5543 10.8335 18.3333 10.8335H3.67832L8.08916 15.2443C8.16875 15.3212 8.23223 15.4132 8.27591 15.5148C8.31958 15.6165 8.34257 15.7259 8.34353 15.8365C8.34449 15.9472 8.32341 16.0569 8.28151 16.1593C8.23961 16.2617 8.17773 16.3548 8.09949 16.433C8.02124 16.5112 7.9282 16.5731 7.82578 16.615C7.72337 16.6569 7.61364 16.678 7.50299 16.6771C7.39234 16.6761 7.28299 16.6531 7.18132 16.6094C7.07965 16.5658 6.9877 16.5023 6.91082 16.4227L1.07749 10.5893C0.921265 10.4331 0.833502 10.2211 0.833502 10.0002C0.833502 9.77921 0.921265 9.56728 1.07749 9.41101Z" fill="white"/>
</svg>
