<svg width="25" height="24" viewBox="0 0 25 24" fill="none" xmlns="http://www.w3.org/2000/svg">
<g clip-path="url(#clip0_5090_10368)">
<rect x="0.497314" width="23.9966" height="24" rx="11.9983" fill="#E8EDF2"/>
<path d="M18.8281 7.4933L12.5 5.12012L6.17188 7.49326V16.5067L12.5 18.8799L18.8281 16.5068L18.8281 7.4933ZM7.57812 8.46774L12.5 6.62204L17.4218 8.46779V9.60273L12.5 11.4485L7.57812 9.60268V8.46774ZM17.4219 15.5323L12.5 17.378L7.57812 15.5322V14.0694L12.5 15.9151L17.4219 14.0694V15.5323ZM12.5 14.4133L7.57812 12.5675V11.1046L12.5 12.9504L17.4218 11.1046L17.4219 12.5674L12.5 14.4133Z" fill="#12477B"/>
<path d="M20.9853 3.51469C18.7188 1.24823 15.7053 0 12.5 0C9.29469 0 6.28123 1.24823 4.01469 3.51469C1.74823 5.78123 0.5 8.79469 0.5 12C0.5 15.2053 1.74823 18.2188 4.01469 20.4853C6.28123 22.7518 9.29469 24 12.5 24C15.7053 24 18.7188 22.7518 20.9853 20.4853C23.2518 18.2188 24.5 15.2053 24.5 12C24.5 8.79469 23.2518 5.78123 20.9853 3.51469ZM12.5 22.5938C6.65858 22.5938 1.90625 17.8414 1.90625 12C1.90625 6.15858 6.65858 1.40625 12.5 1.40625C18.3414 1.40625 23.0938 6.15858 23.0938 12C23.0938 17.8414 18.3414 22.5938 12.5 22.5938Z" fill="#12477B"/>
</g>
<defs>
<clipPath id="clip0_5090_10368">
<rect width="24" height="24" fill="white" transform="translate(0.5)"/>
</clipPath>
</defs>
</svg>
