<svg width="20" height="17" viewBox="0 0 20 17" fill="none" xmlns="http://www.w3.org/2000/svg">
<path d="M18.3932 1.64651C16.218 -0.528064 12.6795 -0.528064 10.5049 1.64651L9.99983 2.1513L9.49504 1.64651C7.32046 -0.528359 3.78163 -0.528359 1.60706 1.64651C-0.523361 3.77693 -0.537195 7.15387 1.57498 9.50181C3.50142 11.6425 9.18304 16.2675 9.4241 16.4632C9.58775 16.5963 9.78467 16.661 9.9804 16.661C9.98688 16.661 9.99335 16.661 9.99953 16.6607C10.202 16.6701 10.406 16.6007 10.575 16.4632C10.816 16.2675 16.4982 11.6425 18.4253 9.50152C20.5371 7.15387 20.5233 3.77693 18.3932 1.64651ZM17.1125 8.32034C15.6105 9.98894 11.4818 13.4303 9.99953 14.6516C8.51724 13.4306 4.38944 9.98953 2.88773 8.32063C1.41427 6.68293 1.40044 4.35059 2.85564 2.89539C3.59885 2.15248 4.57488 1.78073 5.5509 1.78073C6.52693 1.78073 7.50295 2.15218 8.24616 2.89539L9.3564 4.00563C9.48856 4.13779 9.65516 4.21667 9.82999 4.24434C10.1137 4.30527 10.4216 4.22609 10.6424 4.00592L11.7532 2.89539C13.2399 1.40927 15.6582 1.40957 17.144 2.89539C18.5992 4.35059 18.5854 6.68293 17.1125 8.32034Z" fill="#12477B"/>
<path d="M17.1125 8.32034C15.6105 9.98894 11.4818 13.4303 9.99953 14.6516C8.51724 13.4306 4.38944 9.98953 2.88773 8.32063C1.41427 6.68293 1.40044 4.35059 2.85564 2.89539C3.59885 2.15248 4.57488 1.78073 5.5509 1.78073C6.52693 1.78073 7.50295 2.15218 8.24616 2.89539L9.3564 4.00563C9.48856 4.13779 9.65516 4.21667 9.82999 4.24434C10.1137 4.30527 10.4216 4.22609 10.6424 4.00592L11.7532 2.89539C13.2399 1.40927 15.6582 1.40957 17.144 2.89539C18.5992 4.35059 18.5854 6.68293 17.1125 8.32034Z" fill="#12477B"/>
</svg>
