<svg width="25" height="24" viewBox="0 0 25 24" fill="none" xmlns="http://www.w3.org/2000/svg">
<path fill-rule="evenodd" clip-rule="evenodd" d="M12.5 1.5C10.429 1.5 8.75001 3.17894 8.75001 5.25V6H7.09259C5.94611 6 4.98296 6.86205 4.85635 8.00152L3.68969 18.5015C3.54159 19.8343 4.5849 21 5.92593 21H14.75C15.1642 21 15.5 20.6642 15.5 20.25C15.5 19.8358 15.1642 19.5 14.75 19.5H5.92593C5.47892 19.5 5.13114 19.1114 5.18051 18.6672L6.34718 8.1672C6.38938 7.78732 6.71043 7.5 7.09259 7.5H8.75001V9C8.75001 9.41423 9.08579 9.75 9.50001 9.75C9.91424 9.75 10.25 9.41423 10.25 9V7.5H14.75V9C14.75 9.41423 15.0858 9.75 15.5 9.75C15.9142 9.75 16.25 9.41423 16.25 9V7.5H17.9074C18.2896 7.5 18.6107 7.78732 18.6529 8.1672L19.2546 13.5828C19.3003 13.9945 19.6711 14.2912 20.0829 14.2454C20.4946 14.1997 20.7912 13.8289 20.7454 13.4172L20.1437 8.00152C20.0171 6.86206 19.054 6 17.9074 6H16.25V5.25C16.25 3.17894 14.5711 1.5 12.5 1.5ZM14.75 6V5.25C14.75 4.00736 13.7427 3 12.5 3C11.2574 3 10.25 4.00736 10.25 5.25V6H14.75Z" fill="white"/>
<path fill-rule="evenodd" clip-rule="evenodd" d="M19.25 15.75C19.25 15.3358 18.9142 15 18.5 15C18.0858 15 17.75 15.3358 17.75 15.75V17.25H16.25C15.8358 17.25 15.5 17.5858 15.5 18C15.5 18.4142 15.8358 18.75 16.25 18.75H17.75V20.25C17.75 20.6642 18.0858 21 18.5 21C18.9142 21 19.25 20.6642 19.25 20.25V18.75H20.75C21.1642 18.75 21.5 18.4142 21.5 18C21.5 17.5858 21.1642 17.25 20.75 17.25H19.25V15.75Z" fill="white"/>
</svg>
