<svg width="25" height="24" viewBox="0 0 25 24" fill="none" xmlns="http://www.w3.org/2000/svg">
<path d="M10 2H4.375C3.34125 2 2.5 2.84125 2.5 3.875V9.5C2.5 10.5338 3.34125 11.375 4.375 11.375H10C11.0338 11.375 11.875 10.5338 11.875 9.5V3.875C11.875 2.84125 11.0338 2 10 2ZM10.625 9.5C10.625 9.84438 10.345 10.125 10 10.125H4.375C4.03 10.125 3.75 9.84438 3.75 9.5V3.875C3.75 3.53062 4.03 3.25 4.375 3.25H10C10.345 3.25 10.625 3.53062 10.625 3.875V9.5ZM20.625 2H15C13.9662 2 13.125 2.84125 13.125 3.875V9.5C13.125 10.5338 13.9662 11.375 15 11.375H20.625C21.6588 11.375 22.5 10.5338 22.5 9.5V3.875C22.5 2.84125 21.6588 2 20.625 2ZM21.25 9.5C21.25 9.84438 20.97 10.125 20.625 10.125H15C14.655 10.125 14.375 9.84438 14.375 9.5V3.875C14.375 3.53062 14.655 3.25 15 3.25H20.625C20.97 3.25 21.25 3.53062 21.25 3.875V9.5ZM20.625 12.625H15C13.9662 12.625 13.125 13.4662 13.125 14.5V20.125C13.125 21.1588 13.9662 22 15 22H20.625C21.6588 22 22.5 21.1588 22.5 20.125V14.5C22.5 13.4662 21.6588 12.625 20.625 12.625ZM21.25 20.125C21.25 20.4694 20.97 20.75 20.625 20.75H15C14.655 20.75 14.375 20.4694 14.375 20.125V14.5C14.375 14.1556 14.655 13.875 15 13.875H20.625C20.97 13.875 21.25 14.1556 21.25 14.5V20.125ZM10 12.625H4.375C3.34125 12.625 2.5 13.4662 2.5 14.5V20.125C2.5 21.1588 3.34125 22 4.375 22H10C11.0338 22 11.875 21.1588 11.875 20.125V14.5C11.875 13.4662 11.0338 12.625 10 12.625ZM10.625 20.125C10.625 20.4694 10.345 20.75 10 20.75H4.375C4.03 20.75 3.75 20.4694 3.75 20.125V14.5C3.75 14.1556 4.03 13.875 4.375 13.875H10C10.345 13.875 10.625 14.1556 10.625 14.5V20.125Z" fill="#12477B"/>
<path d="M10.625 9.5C10.625 9.84438 10.345 10.125 10 10.125H4.375C4.03 10.125 3.75 9.84438 3.75 9.5V3.875C3.75 3.53062 4.03 3.25 4.375 3.25H10C10.345 3.25 10.625 3.53062 10.625 3.875V9.5Z" fill="#E8EDF2"/>
<path d="M21.25 9.5C21.25 9.84438 20.97 10.125 20.625 10.125H15C14.655 10.125 14.375 9.84438 14.375 9.5V3.875C14.375 3.53062 14.655 3.25 15 3.25H20.625C20.97 3.25 21.25 3.53062 21.25 3.875V9.5Z" fill="#E8EDF2"/>
<path d="M21.25 20.125C21.25 20.4694 20.97 20.75 20.625 20.75H15C14.655 20.75 14.375 20.4694 14.375 20.125V14.5C14.375 14.1556 14.655 13.875 15 13.875H20.625C20.97 13.875 21.25 14.1556 21.25 14.5V20.125Z" fill="#E8EDF2"/>
<path d="M10.625 20.125C10.625 20.4694 10.345 20.75 10 20.75H4.375C4.03 20.75 3.75 20.4694 3.75 20.125V14.5C3.75 14.1556 4.03 13.875 4.375 13.875H10C10.345 13.875 10.625 14.1556 10.625 14.5V20.125Z" fill="#E8EDF2"/>
</svg>
