<svg width="20" height="20" viewBox="0 0 20 20" fill="none" xmlns="http://www.w3.org/2000/svg">
<path d="M18.9224 9.41101L13.0891 3.57768C12.9319 3.42588 12.7214 3.34188 12.5029 3.34378C12.2844 3.34568 12.0754 3.43332 11.9209 3.58783C11.7664 3.74233 11.6788 3.95134 11.6769 4.16984C11.675 4.38834 11.759 4.59884 11.9108 4.75601L16.3216 9.16684H1.66659C1.44557 9.16684 1.23361 9.25464 1.07733 9.41092C0.921049 9.5672 0.833252 9.77916 0.833252 10.0002C0.833252 10.2212 0.921049 10.4332 1.07733 10.5894C1.23361 10.7457 1.44557 10.8335 1.66659 10.8335H16.3216L11.9108 15.2443C11.8312 15.3212 11.7677 15.4132 11.724 15.5148C11.6803 15.6165 11.6573 15.7259 11.6564 15.8365C11.6554 15.9472 11.6765 16.0569 11.7184 16.1593C11.7603 16.2617 11.8222 16.3548 11.9004 16.433C11.9787 16.5112 12.0717 16.5731 12.1741 16.615C12.2765 16.6569 12.3863 16.678 12.4969 16.6771C12.6076 16.6761 12.7169 16.6531 12.8186 16.6094C12.9203 16.5658 13.0122 16.5023 13.0891 16.4227L18.9224 10.5893C19.0786 10.4331 19.1664 10.2211 19.1664 10.0002C19.1664 9.77921 19.0786 9.56728 18.9224 9.41101Z" fill="white"/>
</svg>
