<svg width="20" height="20" viewBox="0 0 20 20" fill="none" xmlns="http://www.w3.org/2000/svg">
<g clip-path="url(#clip0_2234_15017)">
<path d="M19.375 16.6061H18.974V2.77344C18.974 2.42828 18.6942 2.14844 18.349 2.14844H14.5367C14.1916 2.14844 13.9117 2.42828 13.9117 2.77344V16.6061H12.5313V5.69C12.5313 5.34485 12.2514 5.065 11.9063 5.065H8.09402C7.74887 5.065 7.46902 5.34485 7.46902 5.69V16.6061H6.08856V8.60672C6.08856 8.26157 5.80872 7.98172 5.46356 7.98172H1.65131C1.30615 7.98172 1.02631 8.26157 1.02631 8.60672V16.6061H0.625C0.279846 16.6061 0 16.886 0 17.2311C0 17.5763 0.279846 17.8561 0.625 17.8561H19.375C19.7202 17.8561 20 17.5763 20 17.2311C20 16.886 19.7202 16.6061 19.375 16.6061ZM15.1616 3.39844H17.7238V16.6061H15.1616V3.39844ZM8.71902 16.6061V6.315H11.2813V16.6061H8.71902ZM2.27631 9.23172H4.83856V16.6061H2.27631V9.23172Z" fill="#12477B" stroke="#12477B" stroke-width="0.2"/>
</g>
<defs>
<clipPath id="clip0_2234_15017">
<rect width="20" height="20" fill="white"/>
</clipPath>
</defs>
</svg>
