<svg width="20" height="20" viewBox="0 0 20 20" fill="none" xmlns="http://www.w3.org/2000/svg">
<g clip-path="url(#clip0_5338_1462)">
<path d="M10.8584 3.66113C12.8377 1.68198 16.0601 1.68178 18.04 3.66113C19.9677 5.58915 20.0013 8.66278 18.0537 10.8281C16.1597 12.9325 10.5171 17.5274 10.2598 17.7363C10.1796 17.8016 10.0939 17.8256 10.0225 17.8223L9.99902 17.8213H9.97852C9.8941 17.8209 9.81003 17.7939 9.73926 17.7363C9.48162 17.5271 3.83968 12.9331 1.94629 10.8291C-0.00189406 8.66341 0.0328682 5.5892 1.96094 3.66113C3.94024 1.68189 7.16239 1.68174 9.1416 3.66113L10 4.51953L10.8584 3.66113ZM17.3369 4.05078C15.6465 2.5239 13.0288 2.57436 11.3994 4.20312L10.2891 5.31348C10.2176 5.38465 10.125 5.42267 10.0303 5.42578L9.93457 5.41699L9.92188 5.41406L9.9082 5.41211L9.85156 5.39844C9.79715 5.38127 9.74915 5.35266 9.70996 5.31348L8.59961 4.20312C7.75857 3.36215 6.65349 2.94238 5.55078 2.94238C4.44797 2.94241 3.34288 3.36253 2.50195 4.20312C0.83819 5.8669 0.884706 8.50348 2.51562 10.3164C4.04851 12.0199 8.21278 15.4894 9.68164 16.6992L10 16.9609L10.3174 16.6992C11.6944 15.5648 15.4408 12.4442 17.167 10.6553L17.4844 10.3164C19.0639 8.56043 19.1567 6.03132 17.6484 4.3623L17.498 4.20312L17.3369 4.05078ZM12.1064 4.91016C13.3978 3.6193 15.4995 3.61991 16.79 4.91016C17.9977 6.1178 18.0538 8.05933 16.8604 9.50879L16.7412 9.64746C15.3648 11.1766 11.6907 14.2621 9.99902 15.6621C8.3073 14.2622 4.63582 11.1767 3.25977 9.64746L3.13965 9.50879C1.94588 8.05908 2.00145 6.11771 3.20898 4.91016C3.8544 4.26503 4.70164 3.94241 5.55078 3.94238C6.40003 3.94238 7.24723 4.26487 7.89258 4.91016L9.00293 6.02051C9.2078 6.22538 9.46259 6.34673 9.72461 6.39355V6.39453C9.72734 6.39512 9.73066 6.39494 9.7334 6.39551C9.7396 6.39658 9.74574 6.39843 9.75195 6.39941V6.39844C10.131 6.47207 10.5368 6.38811 10.8594 6.14062L10.9951 6.02148L12.1064 4.91016Z" fill="#12477B" stroke="#12477B"/>
</g>
<defs>
<clipPath id="clip0_5338_1462">
<rect width="20" height="20" fill="white"/>
</clipPath>
</defs>
</svg>
