<svg width="20" height="20" viewBox="0 0 20 20" fill="none" xmlns="http://www.w3.org/2000/svg">
<g clip-path="url(#clip0_5266_3046)">
<path d="M19.375 3.52566H9.85918C9.57238 4.83109 8.4066 5.81113 7.01629 5.81113C5.62598 5.81113 4.46019 4.83113 4.1734 3.52566H0.625C0.279844 3.52566 0 3.24582 0 2.90066C0 2.55551 0.279844 2.27566 0.625 2.27566H4.17371C4.46105 0.970898 5.62844 -0.00976562 7.01629 -0.00976562C8.40488 -0.00976562 9.57172 0.970742 9.85895 2.27566H19.375C19.7202 2.27566 20 2.55551 20 2.90066C20 3.24582 19.7202 3.52566 19.375 3.52566ZM8.67668 2.9023C8.67668 2.90008 8.67664 2.89781 8.67664 2.89559C8.67391 1.98281 7.9291 1.24027 7.01629 1.24027C6.10477 1.24027 5.35992 1.9818 5.35598 2.89414L5.35586 2.90332C5.3573 3.81766 6.1016 4.56117 7.01629 4.56117C7.93059 4.56117 8.67465 3.8184 8.67672 2.90461L8.67668 2.9023ZM0.625 16.4741H4.17371C4.46109 15.1694 5.62844 14.1887 7.01629 14.1887C8.40488 14.1887 9.57172 15.1693 9.85895 16.4741H19.375C19.7202 16.4741 20 16.7539 20 17.0991C20 17.4443 19.7202 17.7241 19.375 17.7241H9.85918C9.57238 19.0296 8.4066 20.0096 7.01629 20.0096C5.62598 20.0096 4.46019 19.0296 4.1734 17.7241H0.625C0.279844 17.7241 0 17.4443 0 17.0991C0 16.7539 0.279844 16.4741 0.625 16.4741ZM7.01629 18.7596C7.93059 18.7596 8.67465 18.0168 8.67672 17.103L8.67668 17.1008C8.67668 17.0985 8.67664 17.0963 8.67664 17.0941C8.67391 16.1813 7.9291 15.4387 7.01629 15.4387C6.10477 15.4387 5.35992 16.1802 5.35598 17.0925L5.35586 17.1017C5.35719 18.0162 6.10152 18.7596 7.01629 18.7596ZM0.625 9.37492H10.1408C10.4276 8.06949 11.5934 7.08949 12.9837 7.08949C14.374 7.08949 15.5398 8.06949 15.8266 9.37492H19.375C19.7202 9.37492 20 9.65477 20 9.99992C20 10.3451 19.7202 10.6249 19.375 10.6249H15.8263C15.5389 11.9296 14.3716 12.9104 12.9837 12.9104C11.5951 12.9104 10.4283 11.9298 10.1411 10.6249H0.625C0.279844 10.6249 0 10.3451 0 9.99992C0 9.65477 0.279844 9.37492 0.625 9.37492ZM11.3233 9.99828C11.3233 10.0005 11.3234 10.0028 11.3234 10.005C11.3261 10.9178 12.0709 11.6603 12.9837 11.6603C13.8952 11.6603 14.6401 10.9188 14.644 10.0065L14.6441 9.99734C14.6428 9.08289 13.8984 8.33949 12.9837 8.33949C12.0694 8.33949 11.3254 9.08223 11.3233 9.99605L11.3233 9.99828Z" fill="#1A1A1A"/>
</g>
<defs>
<clipPath id="clip0_5266_3046">
<rect width="20" height="20" fill="white" transform="matrix(-1 0 0 1 20 0)"/>
</clipPath>
</defs>
</svg>
