<svg width="25" height="24" viewBox="0 0 25 24" fill="none" xmlns="http://www.w3.org/2000/svg">
<path d="M19.0251 22H5.97477C4.74298 22 3.71094 21.0012 3.71094 19.7362V9.64877C3.71094 8.98294 4.01056 8.3504 4.54323 7.9176L11.0684 2.52434C11.9007 1.82522 13.0992 1.82522 13.9315 2.52434L20.4567 7.88431C20.9893 8.3171 21.289 8.94965 21.289 9.61548V19.7029C21.289 21.0012 20.2569 22 19.0251 22ZM12.5 3.35664C12.3002 3.35664 12.0672 3.42322 11.9007 3.55639L5.37552 8.94965C5.17577 9.1161 5.04261 9.38244 5.04261 9.64877V19.7362C5.04261 20.2355 5.44211 20.6683 5.97477 20.6683H19.0251C19.5245 20.6683 19.9573 20.2688 19.9573 19.7362V9.64877C19.9573 9.38244 19.8241 9.1161 19.6244 8.94965L13.0992 3.55639C12.9327 3.42322 12.6997 3.35664 12.5 3.35664Z" fill="#999999"/>
<path d="M16.495 19.0703H8.50495C8.13874 19.0703 7.83911 18.7707 7.83911 18.4045C7.83911 18.0383 8.13874 17.7387 8.50495 17.7387H16.495C16.8612 17.7387 17.1608 18.0383 17.1608 18.4045C17.1608 18.7707 16.8612 19.0703 16.495 19.0703Z" fill="#999999"/>
</svg>
