<svg width="20" height="20" viewBox="0 0 20 20" fill="none" xmlns="http://www.w3.org/2000/svg">
<g clip-path="url(#clip0_5338_3874)">
<path d="M18.6375 6.03613C19.1881 7.24487 19.4998 8.58468 19.4998 10C19.4997 11.415 19.1874 12.7537 18.6355 13.9609C17.4172 13.4479 16.1562 13.054 14.8728 12.7705C15.1998 10.9397 15.1999 9.06517 14.8738 7.2334C16.158 6.94808 17.4155 6.55166 18.6375 6.03613Z" fill="#12477B" stroke="#12477B"/>
<path d="M7.27002 14.1864C7.82252 15.9451 8.73377 17.6114 9.99877 19.0839C11.2638 17.6114 12.1763 15.9451 12.7275 14.1864C10.9163 13.9464 9.08127 13.9476 7.27002 14.1864Z" fill="#12477B"/>
<path d="M13.0525 7.04297C12.0475 7.18422 11.0325 7.28047 9.99999 7.28047C8.96624 7.28047 7.95124 7.18297 6.94624 7.04297C6.52499 8.99547 6.52499 11.0155 6.94874 12.968C8.97249 12.6867 11.0262 12.6867 13.05 12.968C13.4737 11.0155 13.475 8.99547 13.0525 7.04297Z" fill="#12477B"/>
<path d="M9.99877 0.916016C8.73377 2.38852 7.82252 4.05477 7.27002 5.81477C9.08127 6.05352 10.9175 6.05352 12.7275 5.81477C12.175 4.05602 11.2638 2.38852 9.99877 0.916016Z" fill="#12477B"/>
<path d="M10.8613 0C12.3288 1.68 13.3738 3.59625 13.9813 5.62C15.4388 5.335 16.8663 4.90125 18.2288 4.3C16.5788 1.90125 13.9163 0.2625 10.8613 0Z" fill="#12477B"/>
<path d="M1.77002 4.3C3.13377 4.9 4.56127 5.335 6.01752 5.62C6.62502 3.59625 7.67002 1.68 9.13752 0C6.08252 0.2625 3.42127 1.90125 1.77002 4.3Z" fill="#12477B"/>
<path d="M5.70875 6.8484C4.15625 6.53715 2.64375 6.06715 1.1875 5.4184L1.1225 5.38965C0.40875 6.7709 0 8.3359 0 9.99965C0 11.6634 0.40875 13.2284 1.1225 14.6109L1.1875 14.5821C2.6375 13.9346 4.15875 13.4671 5.71125 13.1596C5.27 11.0796 5.27 8.92965 5.70875 6.8484Z" fill="#12477B"/>
<path d="M6.01752 14.3809C4.56002 14.6646 3.13252 15.0996 1.77002 15.6996C3.42127 18.0984 6.08252 19.7371 9.13752 19.9996C7.67002 18.3196 6.62502 16.4034 6.01752 14.3809Z" fill="#12477B"/>
<path d="M13.9813 14.3799C13.3751 16.4036 12.3288 18.3199 10.8613 19.9999C13.9163 19.7374 16.5788 18.0986 18.2288 15.6999C16.8663 15.0986 15.4388 14.6649 13.9813 14.3799Z" fill="#12477B"/>
</g>
<defs>
<clipPath id="clip0_5338_3874">
<rect width="20" height="20" fill="white"/>
</clipPath>
</defs>
</svg>
