<svg width="20" height="20" viewBox="0 0 20 20" fill="none" xmlns="http://www.w3.org/2000/svg">
<path d="M10.2083 5.83594C11.2584 5.83594 12.1104 6.68717 12.1106 7.7373C12.1106 8.78763 11.2585 9.63965 10.2083 9.63965C9.15809 9.63943 8.30688 8.78748 8.30688 7.7373C8.30708 6.68731 9.1582 5.83616 10.2083 5.83594Z" fill="#12477B" stroke="#12477B"/>
<path fill-rule="evenodd" clip-rule="evenodd" d="M10.9069 0.0301264C6.33316 -0.370069 2.5 3.27082 2.5 7.73717C2.5 10.1722 3.48298 12.5359 4.6655 14.4989C5.84715 16.4604 7.27959 18.107 8.31941 19.1494C9.34212 20.2861 11.1768 20.2835 12.1959 19.1417C13.368 17.9208 15.0875 15.8958 16.3471 13.5191C17.6024 11.1506 18.4797 8.28209 17.6997 5.47414L17.6943 5.45506C16.7642 2.35521 13.9745 0.148386 10.9069 0.0301264ZM10.2086 3.39882C7.81249 3.39882 5.87008 5.34123 5.87008 7.73731C5.87008 10.1334 7.81249 12.0758 10.2086 12.0758C12.6047 12.0758 14.5471 10.1334 14.5471 7.73731C14.5471 5.34123 12.6047 3.39882 10.2086 3.39882Z" fill="#12477B"/>
</svg>
