<svg width="20" height="20" viewBox="0 0 20 20" fill="none" xmlns="http://www.w3.org/2000/svg">
<path d="M10.2712 9.40234C10.183 9.29389 10.0927 9.18729 9.99976 9.08301C9.58388 9.5495 9.21609 10.0591 8.90112 10.6035C9.26194 10.6437 9.62834 10.667 9.99976 10.667C10.1512 10.667 10.3021 10.6621 10.4519 10.6553M10.2712 9.40234L10.4519 10.6553M10.2712 9.40234L10.4519 10.6553M10.2712 9.40234C10.5777 9.77908 10.8538 10.1808 11.0984 10.6035C10.8848 10.6273 10.6694 10.6454 10.4519 10.6553" fill="#12477B" stroke="#12477B" stroke-width="21.3333"/>
<path d="M10.0001 20C11.5093 20 12.7718 18.9242 13.0618 17.5H6.93848C7.22848 18.9242 8.49098 20 10.0001 20Z" fill="#12477B"/>
</svg>
