<svg width="20" height="20" viewBox="0 0 20 20" fill="none" xmlns="http://www.w3.org/2000/svg">
<path d="M14.7876 0.5C15.0091 0.5 15.2175 0.620323 15.3286 0.8125L17.4302 4.44629H11.106V0.5H14.7876Z" fill="#12477B" stroke="#12477B"/>
<path d="M9.43375 0H5.21227C4.81133 0 4.43816 0.215703 4.2377 0.563086L1.71094 4.94676H9.43371V0H9.43375Z" fill="#12477B"/>
<path d="M1.29126 6.11914V18.6218C1.29126 19.3819 1.90985 20.0001 2.66989 20.0001H17.33C18.0901 20.0001 18.7087 19.3819 18.7087 18.6218V6.11914H1.29126ZM12.6607 11.377L9.62911 14.4086C9.51462 14.523 9.36454 14.5805 9.2145 14.5805C9.06446 14.5805 8.91438 14.523 8.80028 14.4086L7.37907 12.9877C7.15048 12.7591 7.15048 12.3879 7.37907 12.1589C7.60806 11.9299 7.97931 11.9299 8.20829 12.1589L9.21454 13.1655L11.8319 10.5481C12.0609 10.3191 12.4322 10.3191 12.6608 10.5481C12.8897 10.7771 12.8897 11.148 12.6607 11.377Z" fill="#12477B"/>
</svg>
