<svg width="8" height="12" viewBox="0 0 8 12" fill="none" xmlns="http://www.w3.org/2000/svg">
<path d="M1.11199 11.8582C0.938816 11.862 0.768762 11.8118 0.625466 11.7145C0.48217 11.6172 0.372751 11.4776 0.312424 11.3152C0.252097 11.1529 0.243857 10.9758 0.288852 10.8085C0.333846 10.6412 0.429838 10.4922 0.563482 10.382L5.66277 6.01353L0.563481 1.64658C0.471033 1.57864 0.39361 1.49237 0.33606 1.39312C0.27851 1.29386 0.242074 1.18377 0.229033 1.06978C0.215992 0.955789 0.226627 0.84036 0.260272 0.730672C0.293918 0.620983 0.349848 0.519391 0.424561 0.432321C0.499274 0.345249 0.59116 0.274619 0.694466 0.224705C0.797771 0.174789 0.91027 0.146754 1.02492 0.142331C1.13956 0.137908 1.25389 0.157138 1.36073 0.198945C1.46758 0.240751 1.56464 0.304167 1.64584 0.385222L7.48405 5.3804C7.57574 5.45864 7.64936 5.55575 7.69984 5.66519C7.75032 5.77464 7.77646 5.89377 7.77646 6.0143C7.77646 6.13483 7.75032 6.25395 7.69984 6.3634C7.64936 6.47285 7.57574 6.57005 7.48405 6.64829L1.64584 11.6483C1.49836 11.7793 1.30919 11.8536 1.11199 11.8582Z" fill="#1A1A1A"/>
</svg>
