<svg width="12" height="13" viewBox="0 0 12 13" fill="none" xmlns="http://www.w3.org/2000/svg">
<g clip-path="url(#clip0_5322_3313)">
<path d="M10.9453 5.09863H7.05469V1.20801C7.05469 0.625516 6.58249 0.15332 6 0.15332C5.41751 0.15332 4.94531 0.625516 4.94531 1.20801V5.09863H1.05469C0.472195 5.09863 0 5.57083 0 6.15332C0 6.73581 0.472195 7.20801 1.05469 7.20801H4.94531V11.0986C4.94531 11.6811 5.41751 12.1533 6 12.1533C6.58249 12.1533 7.05469 11.6811 7.05469 11.0986V7.20801H10.9453C11.5278 7.20801 12 6.73581 12 6.15332C12 5.57083 11.5278 5.09863 10.9453 5.09863Z" fill="#12477B"/>
</g>
<defs>
<clipPath id="clip0_5322_3313">
<rect width="12" height="12" fill="white" transform="translate(0 0.15332)"/>
</clipPath>
</defs>
</svg>
