<svg width="24" height="24" viewBox="0 0 24 24" fill="none" xmlns="http://www.w3.org/2000/svg">
<path d="M6.74939 21.0355C6.77196 21.5746 7.21555 22 7.75501 22H17.1513C17.6907 22 18.1343 21.5746 18.1569 21.0355L18.8279 6.87012H6.07837L6.74939 21.0355ZM14.5787 10.3885C14.5787 10.1628 14.7617 9.97977 14.9875 9.97977H15.6414C15.8671 9.97977 16.0502 10.1628 16.0502 10.3885V18.4816C16.0502 18.7073 15.8672 18.8903 15.6414 18.8903H14.9875C14.7618 18.8903 14.5787 18.7074 14.5787 18.4816V10.3885ZM11.7174 10.3885C11.7174 10.1628 11.9004 9.97977 12.1262 9.97977H12.7801C13.0058 9.97977 13.1889 10.1628 13.1889 10.3885V18.4816C13.1889 18.7073 13.0059 18.8903 12.7801 18.8903H12.1262C11.9005 18.8903 11.7174 18.7074 11.7174 18.4816V10.3885ZM8.85606 10.3885C8.85606 10.1628 9.03908 9.97977 9.26484 9.97977H9.91877C10.1445 9.97977 10.3276 10.1628 10.3276 10.3885V18.4816C10.3276 18.7073 10.1445 18.8903 9.91877 18.8903H9.26484C9.03913 18.8903 8.85606 18.7074 8.85606 18.4816V10.3885Z" fill="#12477B"/>
<path d="M19.2748 3.0303H14.94V2.21078C14.94 2.0944 14.8456 2 14.7292 2H10.1772C10.0608 2 9.96647 2.0944 9.96647 2.21078V3.03025H5.63161C5.28275 3.03025 5 3.31305 5 3.6619V5.64617H19.9064V3.66195C19.9064 3.3131 19.6237 3.0303 19.2748 3.0303Z" fill="#12477B"/>
</svg>
