<svg width="20" height="21" viewBox="0 0 20 21" fill="none" xmlns="http://www.w3.org/2000/svg">
<path d="M12.5297 15.7778C12.5231 15.7778 12.5165 15.7778 12.51 15.7775C12.165 15.7669 11.894 15.4784 11.9043 15.1334L12.1343 7.63344C12.145 7.28844 12.4253 7.01438 12.7784 7.02782C13.1234 7.03844 13.3943 7.32688 13.384 7.67188L13.154 15.1719C13.1437 15.5106 12.8659 15.7778 12.5297 15.7778Z" fill="#12477B"/>
<path d="M7.78339 15.7775C7.44714 15.7775 7.16933 15.5103 7.15901 15.1719L6.92901 7.67188C6.91839 7.32688 7.18933 7.03844 7.53464 7.02782C7.88089 7.01438 8.16808 7.28813 8.1787 7.63344L8.4087 15.1334C8.41933 15.4784 8.14839 15.7669 7.80308 15.7775C7.79651 15.7775 7.78995 15.7775 7.78339 15.7775Z" fill="#12477B"/>
<path d="M10.3127 15.7773C9.96774 15.7773 9.68774 15.4973 9.68774 15.1523V7.65234C9.68774 7.30734 9.96774 7.02734 10.3127 7.02734C10.6577 7.02734 10.9377 7.30734 10.9377 7.65234V15.1523C10.9377 15.4977 10.6581 15.7773 10.3127 15.7773Z" fill="#12477B"/>
<path d="M14.0631 18.2773H5.9375C5.5925 18.2773 5.3125 17.9973 5.3125 17.6523C5.3125 17.3073 5.5925 17.0273 5.9375 17.0273H14.0631C14.4081 17.0273 14.6881 17.3073 14.6881 17.6523C14.6881 17.9973 14.4084 18.2773 14.0631 18.2773Z" fill="#12477B"/>
<path d="M14.6878 17.6841C14.6771 17.6841 14.6668 17.6838 14.6559 17.6835C14.3112 17.6663 14.0456 17.3728 14.0631 17.0278L14.6584 5.12159C14.6759 4.7769 14.9684 4.51596 15.314 4.52877C15.6587 4.54596 15.9243 4.8394 15.9068 5.1844L15.3115 17.0906C15.2949 17.4244 15.019 17.6841 14.6878 17.6841Z" fill="#12477B"/>
<path d="M14.0632 18.2777C13.7182 18.2777 13.4382 17.9977 13.4382 17.6527C13.4382 17.3077 13.7182 17.0277 14.0632 17.0277H14.0639C14.0814 16.6826 14.3729 16.413 14.7192 16.4348C15.0639 16.452 15.3292 16.7455 15.3117 17.0905C15.2785 17.7561 14.7301 18.2777 14.0632 18.2777Z" fill="#12477B"/>
<path d="M5.31287 17.6837C4.98193 17.6837 4.706 17.424 4.68912 17.0899L4.09381 5.18365C4.07662 4.83865 4.34193 4.54553 4.68662 4.52803C5.03443 4.51209 5.32474 4.77647 5.34224 5.12084L5.93756 17.0274C5.95475 17.3724 5.68943 17.6655 5.34475 17.683C5.33381 17.6833 5.32318 17.6837 5.31287 17.6837Z" fill="#12477B"/>
<path d="M5.93746 18.2774C5.27058 18.2774 4.72215 17.7559 4.68902 17.0899C4.67184 16.7449 4.93715 16.4518 5.28184 16.4343C5.62934 16.4181 5.91996 16.6824 5.93746 17.0271V17.0277C6.28246 17.0277 6.56246 17.3074 6.56246 17.6524C6.56246 17.9974 6.28246 18.2774 5.93746 18.2774Z" fill="#12477B"/>
<path d="M12.5 5.77734C12.155 5.77734 11.875 5.49734 11.875 5.15234V3.27734C11.875 2.93234 12.155 2.65234 12.5 2.65234C12.845 2.65234 13.125 2.93234 13.125 3.27734V5.15234C13.125 5.49766 12.845 5.77734 12.5 5.77734Z" fill="#12477B"/>
<path d="M7.5 5.77734C7.155 5.77734 6.875 5.49734 6.875 5.15234V3.27734C6.875 2.93234 7.155 2.65234 7.5 2.65234C7.845 2.65234 8.125 2.93234 8.125 3.27734V5.15234C8.125 5.49766 7.845 5.77734 7.5 5.77734Z" fill="#12477B"/>
<path d="M16.2505 5.77734H3.74927C3.40427 5.77734 3.12427 5.49734 3.12427 5.15234C3.12427 4.80734 3.40427 4.52734 3.74927 4.52734H16.2508C16.5958 4.52734 16.8758 4.80734 16.8758 5.15234C16.8758 5.49734 16.5958 5.77734 16.2505 5.77734Z" fill="#12477B"/>
<path d="M7.49969 3.90234C7.15469 3.90234 6.875 3.62234 6.875 3.27734C6.875 2.58797 7.43562 2.02734 8.125 2.02734C8.47 2.02734 8.75 2.30734 8.75 2.65234C8.75 2.99734 8.47 3.27734 8.125 3.27734H8.12437C8.12437 3.62266 7.845 3.90234 7.49969 3.90234Z" fill="#12477B"/>
<path d="M11.875 3.27734H8.125C7.78 3.27734 7.5 2.99734 7.5 2.65234C7.5 2.30734 7.78 2.02734 8.125 2.02734H11.875C12.22 2.02734 12.5 2.30734 12.5 2.65234C12.5 2.99734 12.22 3.27734 11.875 3.27734Z" fill="#12477B"/>
<path d="M12.5 3.90234C12.155 3.90234 11.875 3.62234 11.875 3.27734V3.27672C11.53 3.27672 11.25 2.99734 11.25 2.65203C11.25 2.30703 11.53 2.02734 11.875 2.02734C12.5644 2.02734 13.125 2.58797 13.125 3.27734C13.125 3.62266 12.845 3.90234 12.5 3.90234Z" fill="#12477B"/>
</svg>
