<svg width="20" height="20" viewBox="0 0 20 20" fill="none" xmlns="http://www.w3.org/2000/svg">
<g clip-path="url(#clip0_1022_10499)">
<path d="M5.52205 4.55148C5.23361 4.26281 4.76564 4.26281 4.4772 4.55148C3.40626 5.62242 2.8799 7.1143 3.03286 8.64484C3.07103 9.02613 3.39224 9.31035 3.76736 9.31035C3.79201 9.31035 3.81685 9.3091 3.8415 9.30664C4.24767 9.26602 4.54396 8.90367 4.50333 8.49777C4.39447 7.41008 4.76591 6.35246 5.52205 5.59629C5.81072 5.30789 5.81072 4.83988 5.52205 4.55148Z" fill="#999999"/>
<path d="M8.44828 0C3.78988 0 0 3.78988 0 8.44828C0 13.1067 3.78988 16.8966 8.44828 16.8966C13.1067 16.8966 16.8966 13.1067 16.8966 8.44828C16.8966 3.78988 13.1066 0 8.44828 0ZM8.44828 15.4187C4.60469 15.4187 1.47785 12.2919 1.47785 8.44828C1.47785 4.60469 4.60469 1.47785 8.44828 1.47785C12.2916 1.47785 15.4187 4.60469 15.4187 8.44828C15.4187 12.2919 12.2919 15.4187 8.44828 15.4187Z" fill="#999999"/>
<path d="M19.7834 18.7387L14.4139 13.3692C14.1253 13.0805 13.6578 13.0805 13.3691 13.3692C13.0804 13.6577 13.0804 14.1256 13.3691 14.4141L18.7386 19.7835C18.8829 19.9279 19.0718 20 19.261 20C19.4502 20 19.6391 19.9279 19.7834 19.7835C20.0721 19.4951 20.0721 19.0271 19.7834 18.7387Z" fill="#999999"/>
</g>
<defs>
<clipPath id="clip0_1022_10499">
<rect width="20" height="20" fill="white"/>
</clipPath>
</defs>
</svg>
