<svg width="20" height="20" viewBox="0 0 20 20" fill="none" xmlns="http://www.w3.org/2000/svg">
<g clip-path="url(#clip0_1238_12295)">
<path d="M12.4999 10.8332C12.0391 10.8332 11.6666 11.2066 11.6666 11.6665V14.9999C11.6666 15.459 11.2932 15.8332 10.8332 15.8332H8.3332V3.33329C8.3332 2.62162 7.87988 1.9858 7.19825 1.74912L6.95153 1.66659H10.8332C11.2932 1.66659 11.6666 2.04072 11.6666 2.50001V4.99999C11.6666 5.45987 12.0391 5.83326 12.4999 5.83326C12.9607 5.83326 13.3331 5.45987 13.3331 4.99999V2.50001C13.3331 1.12171 12.2115 3.90621e-05 10.8332 3.90621e-05H1.87498C1.84326 3.90621e-05 1.8167 0.0142186 1.78588 0.0183592C1.74573 0.0149999 1.70744 0 1.6667 0C0.747532 3.90621e-05 0 0.747454 0 1.66662V16.6665C0 17.3782 0.453316 18.014 1.13495 18.2506L6.14994 19.9223C6.31994 19.9748 6.489 19.9998 6.66661 19.9998C7.58579 19.9998 8.33316 19.2523 8.33316 18.3331V17.4999H10.8331C12.2114 17.4999 13.3331 16.3782 13.3331 14.9999V11.6665C13.3331 11.2066 12.9607 10.8332 12.4998 10.8332H12.4999Z" fill="#12477B"/>
<path d="M19.7557 7.74459L16.4223 4.41134C16.3058 4.29472 16.1574 4.21527 15.9957 4.18306C15.834 4.15084 15.6664 4.16731 15.5141 4.23036C15.2033 4.35962 14.9999 4.66372 14.9999 5.00047V7.50045H11.6667C11.2066 7.50045 10.8333 7.87369 10.8333 8.33372C10.8333 8.79376 11.2066 9.167 11.6667 9.167H14.9999V11.667C14.9999 12.0037 15.2033 12.3078 15.5141 12.4371C15.6664 12.5001 15.834 12.5166 15.9957 12.4844C16.1573 12.4522 16.3058 12.3728 16.4223 12.2562L19.7557 8.92286C20.0815 8.59708 20.0815 8.07037 19.7557 7.74459Z" fill="#12477B"/>
</g>
<defs>
<clipPath id="clip0_1238_12295">
<rect width="20" height="20" fill="white"/>
</clipPath>
</defs>
</svg>
