<svg width="20" height="20" viewBox="0 0 20 20" fill="none" xmlns="http://www.w3.org/2000/svg">
<path d="M12.0833 1.875C11.7381 1.875 11.4583 2.15483 11.4583 2.5V17.5C11.4583 17.8452 11.7381 18.125 12.0833 18.125C12.4284 18.125 12.7083 17.8452 12.7083 17.5V2.5C12.7083 2.15483 12.4284 1.875 12.0833 1.875Z" fill="#1A1A1A"/>
<path d="M11.6413 2.01607C11.8854 1.77199 12.2811 1.77199 12.5252 2.01607L17.5252 7.01607C17.7693 7.26015 17.7693 7.65588 17.5252 7.89995C17.2811 8.14404 16.8854 8.14403 16.6413 7.89995L11.6413 2.89995C11.3973 2.65587 11.3973 2.26015 11.6413 2.01607Z" fill="#1A1A1A"/>
<path d="M7.9165 1.91699C7.57134 1.91699 7.2915 2.19681 7.2915 2.54199V17.542C7.2915 17.8871 7.57134 18.167 7.9165 18.167C8.26167 18.167 8.5415 17.8871 8.5415 17.542V2.54199C8.5415 2.19681 8.26167 1.91699 7.9165 1.91699Z" fill="#1A1A1A"/>
<path d="M2.47461 12.1001C2.23052 12.3441 2.23052 12.7398 2.47461 12.9839L7.47461 17.9839C7.71869 18.228 8.11436 18.228 8.35844 17.9839C8.60252 17.7398 8.60252 17.3441 8.35844 17.1001L3.35844 12.1001C3.11436 11.856 2.71869 11.856 2.47461 12.1001Z" fill="#1A1A1A"/>
</svg>
