<svg width="12" height="12" viewBox="0 0 12 12" fill="none" xmlns="http://www.w3.org/2000/svg">
<path d="M7.41501 6.00013L11.71 1.70513C11.8976 1.51749 12.0031 1.26299 12.0031 0.997626C12.0031 0.732262 11.8976 0.477767 11.71 0.290126C11.5224 0.102486 11.2679 -0.00292969 11.0025 -0.00292969C10.7371 -0.00292969 10.4827 0.102486 10.295 0.290126L6.00001 4.58513L1.70501 0.295126C1.51371 0.1313 1.26763 0.045694 1.01596 0.0554152C0.76428 0.0651363 0.52554 0.169468 0.347446 0.347563C0.169351 0.525658 0.0650192 0.764397 0.0552981 1.01607C0.0455769 1.26775 0.131183 1.51382 0.295009 1.70513L4.58501 6.00013L0.295009 10.2951C0.107369 10.4828 0.00195313 10.7373 0.00195312 11.0026C0.00195312 11.268 0.107369 11.5225 0.295009 11.7101C0.48265 11.8978 0.737145 12.0032 1.00251 12.0032C1.26787 12.0032 1.52237 11.8978 1.71001 11.7101L6.00001 7.41513L10.295 11.7101C10.4827 11.8978 10.7371 12.0032 11.0025 12.0032C11.2679 12.0032 11.5224 11.8978 11.71 11.7101C11.8976 11.5225 12.0031 11.268 12.0031 11.0026C12.0031 10.7373 11.8976 10.4828 11.71 10.2951L7.41501 6.00013Z" fill="#1A1A1A"/>
</svg>
